<svg width="10" height="7" viewBox="0 0 10 7" fill="none" xmlns="http://www.w3.org/2000/svg">
<path d="M9.11049 2.75926L5.89358 6.09259C5.77444 6.21605 5.63718 6.31481 5.48182 6.38889C5.32741 6.46296 5.1668 6.5 5 6.5C4.8332 6.5 4.67211 6.46296 4.51675 6.38889C4.36234 6.31481 4.22556 6.21605 4.10642 6.09259L0.889511 2.75926C0.48442 2.3395 0.395299 1.85802 0.62215 1.31481C0.848048 0.771604 1.24694 0.499999 1.81884 0.499999L8.18116 0.499999C8.75305 0.499999 9.15195 0.771604 9.37785 1.31481C9.6047 1.85802 9.51558 2.3395 9.11049 2.75926Z" fill="url(#paint0_linear_22_250)"/>
<defs>
<linearGradient id="paint0_linear_22_250" x1="2.5" y1="4.5" x2="10.2802" y2="1.81038" gradientUnits="userSpaceOnUse">
<stop stop-color="#D9297D"/>
<stop offset="1" stop-color="#F18520"/>
</linearGradient>
</defs>
</svg>
