<svg width="6" height="9" viewBox="0 0 6 9" fill="none" xmlns="http://www.w3.org/2000/svg">
<path d="M2.25926 0.389513L5.59259 3.60642C5.71605 3.72556 5.81482 3.86282 5.88889 4.01818C5.96296 4.17259 6 4.3332 6 4.5C6 4.6668 5.96296 4.82789 5.88889 4.98325C5.81482 5.13766 5.71605 5.27444 5.59259 5.39358L2.25926 8.61049C1.8395 9.01558 1.35802 9.1047 0.814814 8.87785C0.271604 8.65195 -8.88374e-07 8.25305 -8.38378e-07 7.68116L-2.82166e-07 1.31884C-2.32169e-07 0.746945 0.271605 0.34805 0.814815 0.122151C1.35802 -0.1047 1.83951 -0.0155796 2.25926 0.389513Z" fill="#151523"/>
</svg>
