<svg width="181" height="36" viewBox="0 0 181 36" fill="none" xmlns="http://www.w3.org/2000/svg">
<path d="M39.0919 7.11134L41.167 0.97542C41.3007 0.475334 41.0026 0.0717199 40.4957 0.0728279L27.6724 0.0958231C27.1655 0.0969314 26.6476 0.503618 26.514 1.0037L25.2711 5.65389L25.2559 5.64982L20.1108 24.8511C18.9134 24.3497 17.4451 24.0599 15.7943 24.0642C10.788 24.0724 6.0156 26.7287 5.1419 29.9975C4.2682 33.2664 7.6158 35.9043 12.6252 35.8969C17.4755 35.8892 22.0883 33.3927 23.1733 30.2689L23.2335 30.0922L29.3882 7.12587L34.0962 7.11593L39.0919 7.11134Z" fill="url(#paint0_linear_53_411)"/>
<path d="M15.7642 21.0715L16.9585 16.7614L7.64327 11.733L19.5859 5.50733L21.019 0L0 11.1647V12.3013L15.7642 21.0715Z" fill="url(#paint1_linear_53_411)"/>
<path d="M33.4393 11.4935L32.245 15.8036L41.5603 20.8321L29.6177 27.0577L28.1845 32.5651L49.2035 21.4004V20.2637L33.4393 11.4935Z" fill="url(#paint2_linear_53_411)"/>
<path d="M72.9818 16.8669C71.7133 16.1556 70.2898 15.4798 68.7534 14.8654C67.8464 14.4871 66.9684 14.0862 66.1518 13.6756C65.361 13.2811 64.7122 12.8284 64.2151 12.3337C63.7697 11.8907 63.5534 11.3993 63.5534 10.8399C63.5534 10.1253 63.8084 9.63383 64.3539 9.30079C64.9607 8.92895 65.7064 8.74142 66.5649 8.74142C67.8431 8.74142 69.0019 9.04535 70.009 9.64676C70.9354 10.1997 71.7326 10.8949 72.3814 11.7129C72.6622 12.0653 73.1561 12.1526 73.5305 11.9101L76.5807 9.95394C76.9713 9.70173 77.1004 9.17792 76.8616 8.78022C76.3193 7.87487 75.593 7.05359 74.7022 6.33901C73.7113 5.54683 72.5589 4.90339 71.2807 4.43131C69.9928 3.956 68.6017 3.7135 67.1395 3.7135C65.6773 3.7135 64.2442 3.97541 62.8788 4.48951C61.4876 5.01656 60.3386 5.83784 59.4703 6.93072C58.5859 8.043 58.1372 9.45599 58.1372 11.1277C58.1372 12.7993 58.5665 14.1379 59.409 15.2308C60.2288 16.2914 61.2585 17.1644 62.4786 17.824C63.6503 18.461 64.8316 19.0171 66.0001 19.486C67.0072 19.861 67.9755 20.2684 68.8793 20.7017C69.7346 21.1124 70.448 21.62 70.9967 22.202C71.5067 22.7452 71.7552 23.3984 71.7552 24.1938C71.7552 25.0797 71.4486 25.7555 70.8192 26.2567C70.1671 26.7772 69.2375 27.0424 68.0562 27.0424C67.0588 27.0424 66.1324 26.8548 65.3029 26.483C64.4637 26.1079 63.7148 25.5906 63.0725 24.9471C62.4947 24.3684 61.9686 23.7411 61.5038 23.0783C61.2391 22.7032 60.7259 22.5965 60.3386 22.8357L57.3529 24.6885C56.9655 24.9277 56.8267 25.4289 57.0398 25.8299C57.5465 26.7869 58.2599 27.7376 59.1604 28.6591C60.1707 29.6905 61.4231 30.5441 62.882 31.1973C64.3475 31.8537 66.013 32.1835 67.827 32.1835C70.6481 32.1835 72.9592 31.3687 74.7022 29.7649C76.4549 28.1514 77.3457 26.1015 77.3457 23.6797C77.3457 22.0145 76.939 20.6273 76.1353 19.5506C75.3542 18.5095 74.2955 17.6074 72.9818 16.8701V16.8669Z" fill="white"/>
<path d="M98.925 4.62855C97.1616 4.02067 95.3197 3.7135 93.4581 3.7135C90.795 3.7135 88.3544 4.33108 86.1984 5.5533C84.0457 6.77552 82.3182 8.47305 81.0619 10.6006C79.8056 12.7282 79.1677 15.2017 79.1677 17.9501C79.1677 20.6985 79.8056 23.1203 81.0587 25.2673C82.315 27.4142 84.0424 29.1214 86.1951 30.3437C88.3478 31.5659 90.7885 32.1835 93.4548 32.1835C95.3164 32.1835 97.155 31.8763 98.9217 31.2684C100.652 30.6735 102.023 29.8263 102.995 28.7561C103.139 28.5976 103.217 28.3907 103.217 28.1741V23.9577C103.217 23.5827 102.985 23.2593 102.628 23.1397C102.269 23.0168 101.886 23.1267 101.647 23.4242C101.326 23.8252 100.924 24.2196 100.453 24.6012C99.5728 25.3093 98.5193 25.8784 97.3186 26.2987C96.1212 26.719 94.8191 26.9292 93.4483 26.9292C91.8059 26.9292 90.3173 26.538 89.0316 25.7652C87.7393 24.9924 86.7022 23.9222 85.9563 22.59C85.2071 21.2546 84.8276 19.6929 84.8276 17.9501C84.8276 16.2073 85.2071 14.6326 85.9563 13.2779C86.7022 11.9295 87.736 10.8625 89.0251 10.1091C90.3141 9.35576 91.8027 8.97099 93.4483 8.97099C94.8158 8.97099 96.1179 9.18439 97.3186 9.6015C98.5193 10.0218 99.576 10.5844 100.456 11.2732C100.927 11.6418 101.326 12.0362 101.647 12.4404C101.876 12.7346 102.259 12.8478 102.615 12.7249C102.979 12.6021 103.214 12.2787 103.214 11.9004V7.71967C103.214 7.50303 103.136 7.29609 102.992 7.13766C102.02 6.06741 100.649 5.22026 98.9184 4.62532L98.925 4.62855Z" fill="white"/>
<path d="M126.958 5.5533C124.86 4.33108 122.454 3.7135 119.8 3.7135C117.147 3.7135 114.789 4.33108 112.672 5.5533C110.558 6.77552 108.862 8.47305 107.628 10.6006C106.395 12.7282 105.768 15.2017 105.768 17.9501C105.768 20.6985 106.395 23.1203 107.625 25.2673C108.859 27.4142 110.555 29.1215 112.669 30.3437C114.782 31.5659 117.179 32.1835 119.797 32.1835C122.415 32.1835 124.86 31.5627 126.955 30.3437C129.049 29.1215 130.736 27.4142 131.969 25.2673C133.203 23.1203 133.826 20.6597 133.826 17.9501C133.826 15.2405 133.2 12.7282 131.966 10.6006C130.736 8.47628 129.049 6.77875 126.955 5.55653L126.958 5.5533ZM119.8 26.926C118.188 26.926 116.726 26.5347 115.463 25.762C114.194 24.9892 113.176 23.9189 112.444 22.5868C111.708 21.2514 111.335 19.6897 111.335 17.9469C111.335 16.2041 111.708 14.6294 112.444 13.2746C113.176 11.9263 114.191 10.8593 115.457 10.1059C116.723 9.35253 118.184 8.96775 119.8 8.96775C121.416 8.96775 122.875 9.34929 124.144 10.1059C125.409 10.8593 126.424 11.9263 127.157 13.2746C127.893 14.6294 128.265 16.2041 128.265 17.9469C128.265 19.6897 127.893 21.2514 127.157 22.5868C126.421 23.9189 125.406 24.9892 124.137 25.762C122.871 26.5347 121.413 26.926 119.8 26.926Z" fill="white"/>
<path d="M151.359 4.11084C150.49 3.84703 149.539 3.7135 148.536 3.7135C147.198 3.7135 145.873 4.2346 144.597 5.26377C144.18 5.59923 143.786 5.97702 143.418 6.39716V5.16606C143.418 4.68405 143.024 4.28997 142.542 4.28997H138.71C138.228 4.28997 137.834 4.68405 137.834 5.16606V30.9376C137.834 31.4196 138.228 31.8137 138.71 31.8137H142.542C143.024 31.8137 143.418 31.4196 143.418 30.9376V14.8552C143.418 14.8324 143.421 14.8096 143.421 14.7868C143.444 13.7121 143.565 12.735 143.78 11.8752C144.004 10.9763 144.411 10.2598 144.988 9.75173C145.548 9.25668 146.352 9.0059 147.381 9.0059C148.081 9.0059 148.657 9.10035 149.096 9.286C149.474 9.44558 149.901 9.6931 150.36 10.0123C150.552 10.1458 150.786 10.1979 151.017 10.1523C151.249 10.11 151.454 9.97319 151.584 9.77778L153.72 6.57628C153.954 6.22129 153.905 5.75555 153.603 5.46244C152.919 4.80781 152.163 4.35185 151.356 4.10432L151.359 4.11084Z" fill="white"/>
<path d="M178.556 10.2862C177.519 8.18477 176.011 6.54563 174.074 5.41407C172.143 4.28575 169.803 3.7135 167.119 3.7135C164.434 3.7135 162.035 4.31484 159.991 5.49813C157.943 6.68465 156.331 8.36905 155.2 10.5028C154.072 12.6269 153.503 15.1293 153.503 17.9485C153.503 20.7677 154.052 23.2086 155.141 25.3295C156.233 27.4633 157.784 29.1541 159.753 30.3633C161.723 31.5692 164.008 32.1835 166.547 32.1835C169.456 32.1835 172.023 31.5951 174.178 30.4344C176.226 29.3319 177.968 27.7025 179.353 25.5946C179.479 25.4006 179.525 25.1646 179.473 24.9383C179.421 24.7087 179.284 24.5115 179.083 24.3854L176.005 22.4553C175.599 22.1999 175.059 22.3228 174.802 22.7301C173.928 24.0945 172.872 25.1323 171.662 25.8177C170.359 26.5548 168.831 26.9298 167.119 26.9298C165.406 26.9298 163.943 26.5677 162.76 25.8532C161.583 25.1452 160.676 24.0977 160.069 22.743C159.656 21.8281 159.376 20.7644 159.237 19.5779H179.19C179.652 19.5779 180.032 19.2191 180.061 18.7632L180.074 18.5854C180.094 18.2879 180.103 17.997 180.103 17.7222C180.103 14.8739 179.583 12.3715 178.556 10.2895V10.2862ZM160.15 12.7369C160.777 11.4339 161.684 10.4252 162.844 9.73015C164.011 9.03505 165.448 8.67942 167.119 8.67942C168.523 8.67942 169.758 8.98656 170.791 9.5879C171.825 10.1925 172.647 11.0363 173.236 12.1C173.658 12.8629 173.931 13.7391 174.051 14.7155H159.467C159.633 13.9913 159.861 13.3317 160.147 12.7369H160.15Z" fill="white"/>
<defs>
<linearGradient id="paint0_linear_53_411" x1="4.53819" y1="33.1168" x2="44.1023" y2="0.310111" gradientUnits="userSpaceOnUse">
<stop offset="0.520833" stop-color="#D9297D"/>
<stop offset="1" stop-color="#F18520"/>
</linearGradient>
<linearGradient id="paint1_linear_53_411" x1="4.53819" y1="33.1168" x2="44.1023" y2="0.310111" gradientUnits="userSpaceOnUse">
<stop offset="0.520833" stop-color="#D9297D"/>
<stop offset="1" stop-color="#F18520"/>
</linearGradient>
<linearGradient id="paint2_linear_53_411" x1="4.53819" y1="33.1168" x2="44.1023" y2="0.310111" gradientUnits="userSpaceOnUse">
<stop offset="0.520833" stop-color="#D9297D"/>
<stop offset="1" stop-color="#F18520"/>
</linearGradient>
</defs>
</svg>
