<svg width="159" height="37" viewBox="0 0 159 37" fill="none" xmlns="http://www.w3.org/2000/svg">
<path d="M61.5401 16.8231C60.386 16.1751 59.091 15.5595 57.6932 14.9999C56.868 14.6553 56.0692 14.29 55.3262 13.916C54.6068 13.5566 54.0165 13.1443 53.5642 12.6936C53.159 12.2901 52.9622 11.8424 52.9622 11.3328C52.9622 10.6819 53.1942 10.2342 53.6905 9.93078C54.2426 9.59206 54.921 9.42122 55.7021 9.42122C56.865 9.42122 57.9193 9.69809 58.8355 10.2459C59.6783 10.7496 60.4037 11.3829 60.9939 12.1281C61.2494 12.4491 61.6987 12.5287 62.0394 12.3077L64.8145 10.5258C65.1698 10.296 65.2873 9.81885 65.07 9.45657C64.5766 8.63184 63.9159 7.8837 63.1054 7.23276C62.2038 6.51113 61.1554 5.92499 59.9925 5.49495C58.8208 5.06197 57.5551 4.84106 56.2248 4.84106C54.8945 4.84106 53.5907 5.07964 52.3485 5.54797C51.0828 6.02808 50.0374 6.77622 49.2474 7.77178C48.4428 8.78501 48.0346 10.0722 48.0346 11.595C48.0346 13.1177 48.4252 14.3372 49.1916 15.3327C49.9375 16.2988 50.8743 17.0941 51.9843 17.695C53.0503 18.2752 54.1251 18.7818 55.1882 19.2089C56.1044 19.5506 56.9854 19.9217 57.8077 20.3164C58.5859 20.6905 59.2349 21.1529 59.7341 21.6831C60.1981 22.1779 60.4242 22.7729 60.4242 23.4975C60.4242 24.3045 60.1452 24.9201 59.5726 25.3767C58.9794 25.8509 58.1336 26.0924 57.0588 26.0924C56.1514 26.0924 55.3086 25.9216 54.5539 25.5828C53.7904 25.2412 53.1091 24.7699 52.5247 24.1838C51.999 23.6565 51.5204 23.0851 51.0975 22.4813C50.8567 22.1396 50.3898 22.0424 50.0374 22.2604L47.321 23.9481C46.9686 24.1661 46.8423 24.6226 47.0361 24.9879C47.4972 25.8597 48.1462 26.7257 48.9655 27.5651C49.8847 28.5047 51.0241 29.2823 52.3514 29.8773C53.6847 30.4752 55.2 30.7756 56.8503 30.7756C59.4169 30.7756 61.5196 30.0334 63.1054 28.5725C64.6999 27.1027 65.5105 25.2353 65.5105 23.0291C65.5105 21.5122 65.1404 20.2486 64.4092 19.2678C63.6986 18.3194 62.7353 17.4976 61.5401 16.826V16.8231Z" fill="white"/>
<path d="M85.1432 5.67462C83.5389 5.12088 81.8631 4.84106 80.1694 4.84106C77.7466 4.84106 75.5261 5.40364 73.5646 6.51702C71.606 7.63039 70.0344 9.17675 68.8914 11.1148C67.7485 13.0529 67.168 15.3062 67.168 17.8098C67.168 20.3134 67.7485 22.5196 68.8885 24.4754C70.0314 26.4311 71.603 27.9863 73.5616 29.0997C75.5201 30.2131 77.7406 30.7756 80.1665 30.7756C81.8601 30.7756 83.5329 30.4958 85.1402 29.9421C86.7148 29.4001 87.962 28.6284 88.846 27.6535C88.9769 27.5092 89.0484 27.3206 89.0484 27.1233V23.2824C89.0484 22.9408 88.837 22.6462 88.5126 22.5373C88.1852 22.4253 87.8369 22.5255 87.6197 22.7965C87.328 23.1617 86.9618 23.521 86.5332 23.8686C85.7325 24.5136 84.7741 25.032 83.6817 25.4149C82.5923 25.7979 81.4077 25.9893 80.1605 25.9893C78.6663 25.9893 77.312 25.6329 76.1422 24.9289C74.9665 24.225 74.0229 23.25 73.3443 22.0365C72.6627 20.8201 72.3174 19.3974 72.3174 17.8098C72.3174 16.2222 72.6627 14.7878 73.3443 13.5537C74.0229 12.3254 74.9635 11.3534 76.1363 10.6671C77.309 9.98085 78.6633 9.63035 80.1605 9.63035C81.4047 9.63035 82.5893 9.82474 83.6817 10.2047C84.7741 10.5876 85.7355 11.1001 86.5362 11.7275C86.9648 12.0633 87.328 12.4226 87.6197 12.7908C87.828 13.0588 88.1763 13.1619 88.5007 13.05C88.8311 12.9381 89.0454 12.6435 89.0454 12.2989V8.49046C89.0454 8.29312 88.974 8.10461 88.843 7.96028C87.959 6.98534 86.7118 6.21364 85.1372 5.67168L85.1432 5.67462Z" fill="white"/>
<path d="M110.647 6.51702C108.739 5.40364 106.55 4.84106 104.136 4.84106C101.721 4.84106 99.576 5.40364 97.65 6.51702C95.7268 7.63039 94.1836 9.17675 93.0613 11.1148C91.939 13.0529 91.369 15.3062 91.369 17.8098C91.369 20.3134 91.939 22.5196 93.0584 24.4754C94.1807 26.4311 95.7239 27.9863 97.6471 29.0997C99.5702 30.2131 101.751 30.7756 104.133 30.7756C106.515 30.7756 108.739 30.2101 110.644 29.0997C112.55 27.9863 114.084 26.4311 115.207 24.4754C116.329 22.5196 116.896 20.2781 116.896 17.8098C116.896 15.3416 116.326 13.0529 115.204 11.1148C114.084 9.1797 112.55 7.63334 110.644 6.51996L110.647 6.51702ZM104.136 25.9864C102.668 25.9864 101.338 25.63 100.19 24.926C99.0353 24.222 98.1088 23.2471 97.4425 22.0336C96.7732 20.8171 96.4341 19.3945 96.4341 17.8069C96.4341 16.2193 96.7732 14.7849 97.4425 13.5507C98.1088 12.3225 99.0324 11.3505 100.184 10.6642C101.336 9.97791 102.665 9.6274 104.136 9.6274C105.606 9.6274 106.933 9.97496 108.087 10.6642C109.239 11.3505 110.162 12.3225 110.829 13.5507C111.498 14.7849 111.837 16.2193 111.837 17.8069C111.837 19.3945 111.498 20.8171 110.829 22.0336C110.159 23.2471 109.236 24.222 108.081 24.926C106.93 25.63 105.603 25.9864 104.136 25.9864Z" fill="white"/>
<path d="M132.848 5.20302C132.057 4.9627 131.192 4.84106 130.28 4.84106C129.062 4.84106 127.856 5.31576 126.695 6.25327C126.316 6.55886 125.958 6.90301 125.623 7.28573V6.16427C125.623 5.72518 125.265 5.36619 124.826 5.36619H121.34C120.901 5.36619 120.543 5.72518 120.543 6.16427V29.6408C120.543 30.0798 120.901 30.4388 121.34 30.4388H124.826C125.265 30.4388 125.623 30.0798 125.623 29.6408V14.9906C125.623 14.9698 125.626 14.949 125.626 14.9283C125.647 13.9492 125.756 13.0592 125.952 12.2759C126.156 11.4571 126.526 10.8044 127.051 10.3416C127.56 9.8906 128.292 9.66215 129.228 9.66215C129.865 9.66215 130.389 9.74819 130.789 9.9173C131.133 10.0627 131.521 10.2882 131.938 10.5789C132.113 10.7005 132.326 10.748 132.537 10.7065C132.747 10.6679 132.934 10.5433 133.052 10.3653L134.995 7.4489C135.209 7.12552 135.164 6.70126 134.889 6.43425C134.267 5.83792 133.579 5.42256 132.845 5.19708L132.848 5.20302Z" fill="white"/>
<path d="M157.592 10.8285C156.648 8.91414 155.276 7.42098 153.514 6.39019C151.757 5.36235 149.628 4.84106 147.186 4.84106C144.743 4.84106 142.561 5.38885 140.701 6.46676C138.838 7.54761 137.371 9.08201 136.342 11.0258C135.316 12.9607 134.798 15.2402 134.798 17.8084C134.798 20.3765 135.298 22.6 136.289 24.532C137.282 26.4758 138.693 28.0161 140.485 29.1176C142.277 30.2161 144.356 30.7756 146.665 30.7756C149.312 30.7756 151.648 30.2396 153.608 29.1823C155.471 28.1781 157.056 26.6937 158.316 24.7735C158.431 24.5968 158.473 24.3818 158.426 24.1757C158.378 23.9666 158.254 23.7869 158.071 23.6721L155.27 21.9138C154.901 21.6812 154.41 21.7931 154.176 22.1642C153.381 23.407 152.42 24.3524 151.32 24.9767C150.134 25.6482 148.744 25.9899 147.186 25.9899C145.627 25.9899 144.296 25.66 143.22 25.0091C142.15 24.3642 141.325 23.4099 140.772 22.1759C140.396 21.3425 140.142 20.3735 140.015 19.2927H158.168C158.588 19.2927 158.934 18.9658 158.961 18.5505L158.973 18.3885C158.99 18.1176 158.999 17.8525 158.999 17.6022C158.999 15.0076 158.526 12.7281 157.592 10.8314V10.8285ZM140.846 13.0608C141.416 11.874 142.241 10.9551 143.297 10.3219C144.359 9.6887 145.666 9.36474 147.186 9.36474C148.463 9.36474 149.587 9.64453 150.527 10.1923C151.467 10.7431 152.216 11.5117 152.751 12.4807C153.135 13.1757 153.384 13.9738 153.493 14.8633H140.225C140.375 14.2035 140.582 13.6027 140.843 13.0608H140.846Z" fill="white"/>
<path d="M35.6352 4.83036V1.01223C35.6352 0.559469 35.2947 0.286154 34.8697 0.402106L30.7558 1.52297L23.7159 3.43342V0.63677C23.7159 0.184006 23.3754 -0.0893091 22.9504 0.0266427L12.1972 2.95581C11.7722 3.07176 11.4289 3.5328 11.4289 3.98557V8.19572H11.4153L11.4044 25.583C10.2874 25.4311 8.99053 25.5195 7.60654 25.8977C3.40823 27.0407 0 30.3674 0 33.3269C0 36.2864 3.40006 37.7552 7.60109 36.6122C11.6686 35.5051 14.9788 32.3496 15.1886 29.4646L15.1995 29.3017C15.1995 29.2603 15.1995 29.2202 15.1995 29.1788C15.1995 29.1374 15.1995 29.1029 15.1995 29.0643L15.2131 8.50493L19.1607 7.42823L23.3509 6.2908V9.09021C23.3509 9.54297 23.6914 9.81629 24.1164 9.70034L31.8401 7.59388L31.8292 23.2446C30.7122 23.0928 29.4154 23.1811 28.0314 23.5593C23.8331 24.7051 20.4249 28.0318 20.4249 30.9885C20.4249 33.9481 23.8249 35.4168 28.0259 34.2738C32.0935 33.1668 35.4036 30.0112 35.6134 27.1262L35.6243 26.9634C35.6243 26.9219 35.6243 26.8833 35.6243 26.8419C35.6243 26.8005 35.6243 26.7646 35.6243 26.7259L35.6379 4.82484L35.6352 4.83036Z" fill="url(#paint0_linear_1_625)"/>
<defs>
<linearGradient id="paint0_linear_1_625" x1="1.49999" y1="37" x2="39.8979" y2="2.68304" gradientUnits="userSpaceOnUse">
<stop offset="0.355079" stop-color="#D9297D"/>
<stop offset="1" stop-color="#F18520"/>
</linearGradient>
</defs>
</svg>
